<svg id="Layer_1" height="512" viewBox="0 0 64 64" width="512" color="#fff" xmlns="http://www.w3.org/2000/svg"  data-name="Layer 1"><path d="m48 1a15 15 0 1 0 15 15 15.017 15.017 0 0 0 -15-15zm0 28a13 13 0 1 1 13-13 13.015 13.015 0 0 1 -13 13z"/><path d="m48 33a15 15 0 1 0 15 15 15.017 15.017 0 0 0 -15-15zm0 28a13 13 0 1 1 13-13 13.015 13.015 0 0 1 -13 13z"/><path d="m56.447 15.105-12-6a1 1 0 0 0 -1.447.895v12a1 1 0 0 0 1.447.895l12-6a1 1 0 0 0 0-1.79zm-11.447 5.277v-8.764l8.764 4.382z"/><path d="m54 41h-12a1 1 0 0 0 -1 1v2h2v-1h4v11h-2v2h6v-2h-2v-11h4v1h2v-2a1 1 0 0 0 -1-1z"/><path d="m16 1a15 15 0 1 0 15 15 15.017 15.017 0 0 0 -15-15zm0 28a13 13 0 1 1 13-13 13.015 13.015 0 0 1 -13 13z"/><path d="m22.211 8.713a1 1 0 0 0 -.811-.224l-9.148 1.525a1 1 0 0 0 -.835.987v7.737a3.5 3.5 0 0 0 -1.649.029 3.239 3.239 0 0 0 -2.018 1.454 2.275 2.275 0 0 0 -.25 1.755 2.632 2.632 0 0 0 2.662 1.789 3.652 3.652 0 0 0 .914-.118 3.239 3.239 0 0 0 2.024-1.454 2.332 2.332 0 0 0 .321-1.283v-9.063l7.148-1.191v6.557a3.518 3.518 0 0 0 -1.648.029 3.246 3.246 0 0 0 -2.021 1.458 2.279 2.279 0 0 0 -.249 1.754 2.631 2.631 0 0 0 2.662 1.79 3.7 3.7 0 0 0 .915-.117 3.247 3.247 0 0 0 2.018-1.454 2.328 2.328 0 0 0 .321-1.283v-.033-9.877a1 1 0 0 0 -.356-.767zm-10.842 12.477a1.268 1.268 0 0 1 -.786.52c-.624.161-1.1-.081-1.151-.266a.314.314 0 0 1 .051-.22 1.269 1.269 0 0 1 .786-.52 1.606 1.606 0 0 1 .4-.053c.418 0 .709.177.749.32a.313.313 0 0 1 -.049.219zm9.148-1.524a1.269 1.269 0 0 1 -.786.52c-.624.162-1.1-.082-1.151-.267a.317.317 0 0 1 .051-.22 1.271 1.271 0 0 1 .786-.519 1.613 1.613 0 0 1 .4-.053c.417 0 .709.176.748.318a.317.317 0 0 1 -.048.221z"/><path d="m16 33a15 15 0 1 0 15 15 15.017 15.017 0 0 0 -15-15zm0 28a13 13 0 1 1 13-13 13.015 13.015 0 0 1 -13 13z"/><path d="m18.648 40.508a.954.954 0 0 0 -.9-.507 1 1 0 0 0 -.868.562l-2.423 5-1.137-2.046a1.04 1.04 0 0 0 -1.748 0l-4.444 8a1 1 0 0 0 .872 1.483h16a1 1 0 0 0 .871-1.492zm-8.948 10.492 2.744-4.94 1.2 2.154a1.044 1.044 0 0 0 .9.515 1 1 0 0 0 .873-.564l2.43-5.014 4.439 7.849z"/></svg>